<svg height="16" width="16" xmlns="http://www.w3.org/2000/svg"><path d="m-1-1h18v18h-18z" fill="none"/><path d="m.250064 7.970065c0 3.161 1.895 5.876 4.607 7.07-.021-.539-.004-1.186.134-1.773.147-.626.989-4.206.989-4.206s-.245-.494-.245-1.221c0-1.146.662-1.999 1.484-1.999.701 0 1.04.527 1.04 1.158 0 .707-.45 1.763-.68 2.74-.194.819.409 1.487 1.214 1.487 1.459 0 2.44-1.878 2.44-4.103 0-1.692-1.137-2.958-3.202-2.958-2.335 0-3.789 1.745-3.789 3.695 0 .674.197 1.148.507 1.515.142.169.162.236.111.43-.037.141-.122.484-.157.619-.052.195-.209.266-.385.194-1.076-.441-1.577-1.622-1.577-2.949 0-2.193 1.844-4.823 5.501-4.823 2.938 0 4.873 2.133 4.873 4.423 0 3.029-1.679 5.29-4.153 5.29-.831 0-1.614-.451-1.88-.962 0 0-.447 1.778-.542 2.123-.162.593-.483 1.189-.775 1.652.692.205 1.424.316 2.182.316 4.25 0 7.696-3.456 7.696-7.718 0-4.264-3.446-7.72-7.696-7.72-4.251 0-7.697 3.456-7.697 7.72z" fill="#fff" fill-rule="evenodd"/></svg>