<svg height="16" width="16" xmlns="http://www.w3.org/2000/svg"><path d="m-1-1h18v18h-18z" fill="none"/><path d="m14.429021 12.908021c0 .846-.687 1.533-1.532 1.533h-9.807c-.846 0-1.532-.687-1.532-1.533v-6.55h2.387c-.207.508-.323 1.061-.323 1.642 0 2.412 1.961 4.375 4.371 4.375 2.411 0 4.372-1.963 4.372-4.375 0-.581-.118-1.134-.323-1.642h2.387zm-8.717-6.55c.512-.71 1.342-1.175 2.281-1.175s1.77.465 2.281 1.175c.335.463.534 1.029.534 1.642 0 1.553-1.264 2.816-2.815 2.816s-2.813-1.263-2.813-2.816c0-.613.199-1.179.532-1.642zm8.071-4.514.354-.001v.352 2.36l-2.702.008-.009-2.712zm-.886-1.844h-9.807c-1.704 0-3.09 1.387-3.09 3.092v3.266 6.55c0 1.705 1.386 3.092 3.09 3.092h9.807c1.703 0 3.09-1.387 3.09-3.092v-6.55-3.266c0-1.705-1.387-3.092-3.09-3.092z" fill="#fff" fill-rule="evenodd"/></svg>