<?xml version="1.0" encoding="UTF-8"?><svg width="24" height="24" viewBox="0 0 24 24" xmlns="http://www.w3.org/2000/svg"><path d="m-1-1h26v26h-26z" fill="none"/><path d="m5.81 24.203a2.75 2.75 0 1 1 .003-5.502 2.75 2.75 0 0 1 -.002 5.502zm.001-1.5a1.25 1.25 0 1 0 0-2.502 1.25 1.25 0 0 0 0 2.501zm13.393 1.5a2.75 2.75 0 1 1 .002-5.502 2.75 2.75 0 0 1 -.002 5.502zm0-1.5a1.25 1.25 0 1 0 -.001-2.502 1.25 1.25 0 0 0 0 2.501zm3.106-19.188a.8.8 0 0 1 .791.81v5.419c0 .373-.25.699-.605.787l-17.677 4.373v1.668h17.706l.1.1v1.42l-.1.1h-18.497a.8.8 0 0 1 -.792-.81v-15.762h-2.236l-.1-.1v-1.42l.1-.1h3.028a.8.8 0 0 1 .79.81v2.705h17.49zm-17.49 9.723 16.699-4.132v-3.972h-16.7v8.104z" fill="#40354e" fill-rule="evenodd"/></svg>
