<svg width="16" height="16" xmlns="http://www.w3.org/2000/svg"><g><rect fill="none" height="18" width="18" y="-1" x="-1"/></g><g><g fill-rule="evenodd" fill="none"><g><path fill="#fff" d="m8.832109,0.250111l0,3.902l3.66,0l0,2.424l-3.66,0l0,3.958c0,0.896 0.047,1.47 0.143,1.723c0.093,0.255 0.269,0.458 0.529,0.61c0.34,0.205 0.728,0.307 1.17,0.307c0.78,0 1.557,-0.256 2.331,-0.763l0,2.436c-0.661,0.309 -1.257,0.528 -1.791,0.653c-0.534,0.126 -1.112,0.188 -1.734,0.188c-0.706,0 -1.328,-0.089 -1.869,-0.267c-0.542,-0.18 -1.006,-0.432 -1.386,-0.762c-0.383,-0.33 -0.65,-0.682 -0.797,-1.054c-0.149,-0.371 -0.222,-0.909 -0.222,-1.615l0,-5.414l-1.706,0l0,-2.184c0.608,-0.199 1.127,-0.481 1.559,-0.848c0.43,-0.368 0.779,-0.81 1.04,-1.326c0.261,-0.515 0.442,-1.172 0.54,-1.968l2.193,0z"/></g></g><rect height="121" width="211" y="-200.5625" x="-311.5" opacity="0.5" fill-opacity="null" stroke-opacity="null" stroke-width="1.5" stroke="#000" fill="#845335"/></g></svg>