<svg width="24" height="24" xmlns="http://www.w3.org/2000/svg"><path d="M12 4.96l-.975-.975A6.359 6.359 0 0 0 6.5 2.1C2.965 2.1.1 4.983.1 8.535c0 1.758.607 2.95 2.238 4.59l8.05 8.104c.433.435 1.012.671 1.612.671.6 0 1.179-.236 1.611-.67l8.03-8.082c1.627-1.638 2.259-2.865 2.259-4.613 0-3.552-2.865-6.435-6.4-6.435a6.361 6.361 0 0 0-4.527 1.888l.002-.003L12 4.96zm5.5-1.06c2.539 0 4.6 2.074 4.6 4.635 0 1.208-.415 2.014-1.737 3.344l-8.029 8.082A.466.466 0 0 1 12 20.1a.466.466 0 0 1-.334-.14l-8.051-8.103C2.292 10.525 1.9 9.757 1.9 8.535 1.9 5.975 3.961 3.9 6.5 3.9c1.236 0 2.393.493 3.25 1.356l1.614 1.613.636.636 2.248-2.247A4.564 4.564 0 0 1 17.5 3.9z" fill="#40354E" fill-rule="nonzero"/></svg>
