<svg height="16" width="16" xmlns="http://www.w3.org/2000/svg"><path d="m-1-1h18v18h-18z" fill="none"/><path d="m15.758458 3.151729c-.567.252-1.178.422-1.817.499.654-.393 1.156-1.013 1.39-1.752-.611.363-1.287.626-2.01.768-.575-.616-1.399-1-2.309-1-1.747 0-3.164 1.418-3.164 3.167 0 .249.027.489.082.721-2.63-.132-4.961-1.392-6.524-3.309-.272.469-.427 1.012-.427 1.593 0 1.098.558 2.068 1.407 2.636-.518-.015-1.006-.159-1.434-.395v.039c0 1.535 1.091 2.815 2.539 3.105-.264.074-.544.112-.834.112-.203 0-.401-.019-.594-.057.402 1.259 1.57 2.175 2.956 2.199-1.084.85-2.449 1.356-3.931 1.356-.255 0-.508-.014-.755-.043 1.401.898 3.065 1.422 4.851 1.422 5.822 0 9.004-4.825 9.004-9.012 0-.137-.003-.274-.009-.409.619-.447 1.156-1.005 1.579-1.64" fill="#fff" fill-rule="evenodd"/></svg>